<?xml version="1.0" encoding="utf-8"?>
<!-- Generator: Adobe Illustrator 17.1.0, SVG Export Plug-In . SVG Version: 6.00 Build 0)  -->
<!DOCTYPE svg PUBLIC "-//W3C//DTD SVG 1.0//EN" "http://www.w3.org/TR/2001/REC-SVG-20010904/DTD/svg10.dtd">
<svg version="1.0" id="Layer_1" xmlns="http://www.w3.org/2000/svg" xmlns:xlink="http://www.w3.org/1999/xlink" x="0px" y="0px"
	 width="24px" height="24px" viewBox="0 0 24 24" style="enable-background:new 0 0 24 24;" xml:space="preserve">
<path style="fill:#333333;" d="M19.3,11.8l0.4,0.4c0.4,0.4,0.4,1.1,0,1.6l-6.9,6.9c-0.4,0.4-1.1,0.4-1.6,0l-6.8-6.8
	C2.7,12.9,1.5,11.1,1.5,9C1.5,6,4,3.5,7,3.5c1.7,0,3.1,0.7,4.1,1.9l0.1-0.1c0.4-0.4,1.1-0.4,1.6,0L14.5,7l5.1-7H2.2C1,0,0,1,0,2.2
	v19.6C0,23,1,24,2.2,24h19.6c1.2,0,2.2-1,2.2-2.2v-14L19.3,11.8z"/>
<path style="fill:#333333;" d="M21.8,0h-0.4l-9.2,12.7c-0.3,0.3-0.5,0.1-0.6,0c0,0-0.3-0.3-0.6-0.8c-0.5,0.8-1.3,1.4-2.2,1.7
	l2.8,2.3c0,0,0.2,0.2,0.4,0L24,5.9V2.2C24,1,23,0,21.8,0z"/>
<circle style="fill:#333333;" cx="7" cy="9" r="4"/>
</svg>
