<?xml version="1.0" encoding="utf-8"?>
<!-- Generator: Adobe Illustrator 17.1.0, SVG Export Plug-In . SVG Version: 6.00 Build 0)  -->
<!DOCTYPE svg PUBLIC "-//W3C//DTD SVG 1.0//EN" "http://www.w3.org/TR/2001/REC-SVG-20010904/DTD/svg10.dtd">
<svg version="1.0" id="Layer_1" xmlns="http://www.w3.org/2000/svg" xmlns:xlink="http://www.w3.org/1999/xlink" x="0px" y="0px"
	 width="24px" height="24px" viewBox="0 0 24 24" style="enable-background:new 0 0 24 24;" xml:space="preserve">
<g>
	<path style="fill:#333333;" d="M7.9,4.6c-0.6,0-1.2,0.3-1.5,0.7C6,5.8,5.9,6.4,5.9,6.9c0,1.4,0.8,3.8,2.7,3.8
		c0.5,0,1.1-0.3,1.5-0.6c0.5-0.5,0.5-1.2,0.5-1.5C10.6,7,9.7,4.6,7.9,4.6z"/>
	<path style="fill:#333333;" d="M21.8,0H2.2C1,0,0,1,0,2.2v19.6C0,23,1,24,2.2,24h19.6c1.2,0,2.2-1,2.2-2.2V2.2C24,1,23,0,21.8,0z
		 M12.5,7.5c0,1.6-0.9,2.3-1.8,3c-0.3,0.3-0.6,0.6-0.6,1c0,0.5,0.3,0.7,0.6,0.9l0.8,0.6c0.9,0.8,1.8,1.5,1.8,3c0,2-2,4-5.6,4
		c-3.1,0-4.6-1.5-4.6-3c0-0.8,0.4-1.8,1.7-2.6c1.3-0.8,3.1-0.9,4.1-1c-0.3-0.4-0.6-0.8-0.6-1.4c0-0.4,0.1-0.6,0.2-0.8
		c-0.2,0-0.5,0-0.7,0C5.3,11.3,4,9.6,4,7.9c0-1,0.5-2.1,1.4-2.8c1.2-1,2.7-1.2,3.8-1.2h4.4l-1.4,0.7H11C11.5,5.1,12.5,5.9,12.5,7.5z
		 M22,13h-3v3h-2v-3h-3v-2h3V8h2v3h3V13z"/>
	<path style="fill:#333333;" d="M8.9,14.1c-0.2,0-1.4,0-2.3,0.3c-0.5,0.2-1.8,0.7-1.8,2.2c0,1.5,1.5,2.6,3.8,2.6
		c2.1,0,3.2-1,3.2-2.3c0-1.1-0.7-1.7-2.3-2.8C9.3,14.1,9.2,14.1,8.9,14.1z"/>
</g>
</svg>
