<?xml version="1.0" encoding="utf-8"?>
<!-- Generator: Adobe Illustrator 17.1.0, SVG Export Plug-In . SVG Version: 6.00 Build 0)  -->
<!DOCTYPE svg PUBLIC "-//W3C//DTD SVG 1.0//EN" "http://www.w3.org/TR/2001/REC-SVG-20010904/DTD/svg10.dtd">
<svg version="1.0" id="Layer_1" xmlns="http://www.w3.org/2000/svg" xmlns:xlink="http://www.w3.org/1999/xlink" x="0px" y="0px"
	 width="24px" height="24px" viewBox="0 0 24 24" style="enable-background:new 0 0 24 24;" xml:space="preserve">
<path style="fill:#333333;" d="M21.8,0H2.2C1,0,0,1,0,2.2v19.6C0,23,1,24,2.2,24h19.6c1.2,0,2.2-1,2.2-2.2V2.2C24,1,23,0,21.8,0z
	 M7,20H3V9h4V20z M5,7.7L5,7.7c-1.2,0-2-0.8-2-1.8C3,4.8,3.8,4,5,4c1.2,0,2,0.8,2,1.8C7,6.9,6.2,7.7,5,7.7z M21,20h-4v-6
	c0-1.6-1.1-2-1.4-2c-0.3,0-1.6,0.2-1.6,2c0,0.2,0,6,0,6h-4V9h4v1.6C14.6,9.7,15.6,9,17.5,9s3.5,1.5,3.5,5V20z"/>
</svg>
