<?xml version="1.0" encoding="utf-8"?>
<!-- Generator: Adobe Illustrator 15.0.0, SVG Export Plug-In . SVG Version: 6.00 Build 0)  -->
<!DOCTYPE svg PUBLIC "-//W3C//DTD SVG 1.1//EN" "http://www.w3.org/Graphics/SVG/1.1/DTD/svg11.dtd">
<svg version="1.1" id="Layer_1" xmlns="http://www.w3.org/2000/svg" xmlns:xlink="http://www.w3.org/1999/xlink" x="0px" y="0px"
	 width="26px" height="26px" viewBox="0 0 26 26" enable-background="new 0 0 26 26" xml:space="preserve">

<g>
	<path fill="#333333" d="M23,6c0.551,0,1,0.449,1,1v12c0,0.551-0.449,1-1,1H3c-0.551,0-1-0.449-1-1V7c0-0.551,0.449-1,1-1H23 M23,4
		H3C1.344,4,0,5.344,0,7v12c0,1.656,1.344,3,3,3h20c1.656,0,3-1.344,3-3V7C26,5.344,24.656,4,23,4L23,4z"/>
</g>
<polygon fill="#333333" points="17.469,12.887 23.875,19.445 16.061,13.863 13,15.857 9.938,13.863 2.124,19.445 8.531,12.887 
	0.784,6.848 13,13.436 25.215,6.848 "/>
</svg>
