<?xml version="1.0" encoding="utf-8"?>
<!-- Generator: Adobe Illustrator 17.1.0, SVG Export Plug-In . SVG Version: 6.00 Build 0)  -->
<!DOCTYPE svg PUBLIC "-//W3C//DTD SVG 1.0//EN" "http://www.w3.org/TR/2001/REC-SVG-20010904/DTD/svg10.dtd">
<svg version="1.0" id="Layer_1" xmlns="http://www.w3.org/2000/svg" xmlns:xlink="http://www.w3.org/1999/xlink" x="0px" y="0px"
	 width="24px" height="24px" viewBox="0 0 24 24" style="enable-background:new 0 0 24 24;" xml:space="preserve">
<path style="fill:#333333;" d="M21.8,0H2.2C1,0,0,1,0,2.2v19.6C0,23,1,24,2.2,24h19.6c1.2,0,2.2-1,2.2-2.2V2.2C24,1,23,0,21.8,0z
	 M19.1,14.1c1.4,1.3,1.7,2,1.8,2.1c0.6,1-0.7,1.1-0.7,1.1l-2.4,0c0,0-0.5,0.1-1.2-0.4c-0.9-0.6-1.7-2.2-2.4-2
	c-0.7,0.2-0.6,1.7-0.6,1.7s0,0.3-0.1,0.4c-0.2,0.2-0.5,0.2-0.5,0.2h-1.1c0,0-2.4,0.2-4.5-2C5.1,12.8,3,8.1,3,8.1s-0.1-0.3,0-0.4
	c0.1-0.2,0.5-0.2,0.5-0.2l2.6,0c0,0,0.2,0,0.4,0.2c0.1,0.1,0.2,0.3,0.2,0.3s0.4,1.1,1,2c1.1,1.9,1.6,2.3,1.9,2.1
	c0.5-0.3,0.4-2.6,0.4-2.6s0-0.8-0.3-1.2C9.6,7.8,9.2,7.8,9,7.7c-0.1,0,0.1-0.4,0.4-0.5C9.9,7,10.7,7,11.7,7c0.8,0,1,0.1,1.3,0.1
	c0.9,0.2,0.6,1,0.6,3c0,0.6-0.1,1.5,0.3,1.8c0.2,0.1,0.7,0,1.9-2c0.6-1,1-2.1,1-2.1s0.1-0.2,0.2-0.3c0.1-0.1,0.3-0.1,0.3-0.1l2.7,0
	c0,0,0.8-0.1,0.9,0.3c0.1,0.4-0.3,1.3-1.4,2.8C17.7,12.9,17.5,12.7,19.1,14.1z"/>
</svg>
