<?xml version="1.0" encoding="utf-8"?>
<!-- Generator: Adobe Illustrator 17.1.0, SVG Export Plug-In . SVG Version: 6.00 Build 0)  -->
<!DOCTYPE svg PUBLIC "-//W3C//DTD SVG 1.0//EN" "http://www.w3.org/TR/2001/REC-SVG-20010904/DTD/svg10.dtd">
<svg version="1.0" id="Layer_1" xmlns="http://www.w3.org/2000/svg" xmlns:xlink="http://www.w3.org/1999/xlink" x="0px" y="0px"
	 width="24px" height="24px" viewBox="0 0 24 24" style="enable-background:new 0 0 24 24;" xml:space="preserve">
<path style="fill:#333333;" d="M21.8,0H2.2C1,0,0,1,0,2.2v19.6C0,23,1,24,2.2,24h19.6c1.2,0,2.2-1,2.2-2.2V2.2C24,1,23,0,21.8,0z
	 M7.4,16H4.6c-0.2,0-0.4-0.3-0.3-0.5l2.9-5.4c0.1-0.1,0.1-0.2,0-0.3L5.4,6.5C5.3,6.3,5.4,6,5.6,6h2.8c0.1,0,0.2,0.1,0.3,0.2l2.1,3.7
	c0.1,0.1,0.1,0.2,0,0.3l-3.1,5.7C7.7,15.9,7.5,16,7.4,16z M19.6,3.5L14,13.8c-0.1,0.1-0.1,0.2,0,0.3l3.6,6.4c0.1,0.2,0,0.5-0.3,0.5
	h-2.8c-0.1,0-0.2-0.1-0.3-0.2l-3.8-6.7c-0.1-0.1-0.1-0.2,0-0.3l5.8-10.7C16.3,3.1,16.5,3,16.6,3h2.8C19.6,3,19.7,3.3,19.6,3.5z"/>
</svg>
