<?xml version="1.0" encoding="utf-8"?>
<!-- Generator: Adobe Illustrator 17.1.0, SVG Export Plug-In . SVG Version: 6.00 Build 0)  -->
<!DOCTYPE svg PUBLIC "-//W3C//DTD SVG 1.0//EN" "http://www.w3.org/TR/2001/REC-SVG-20010904/DTD/svg10.dtd">
<svg version="1.0" id="Layer_1" xmlns="http://www.w3.org/2000/svg" xmlns:xlink="http://www.w3.org/1999/xlink" x="0px" y="0px"
	 width="24px" height="24px" viewBox="0 0 24 24" style="enable-background:new 0 0 24 24;" xml:space="preserve">
<g>
	<path style="fill:#333333;" d="M20.8,2C21.5,2,22,2.5,22,3.2v17.6c0,0.7-0.5,1.2-1.2,1.2H3.2C2.5,22,2,21.5,2,20.8V3.2
		C2,2.5,2.5,2,3.2,2H20.8 M20.8,0H3.2C1.4,0,0,1.4,0,3.2v17.6C0,22.6,1.4,24,3.2,24h17.6c1.8,0,3.2-1.4,3.2-3.2V3.2
		C24,1.4,22.6,0,20.8,0L20.8,0z"/>
</g>
<path style="fill:#333333;" d="M17.3,7h3.4C20.9,7,21,6.9,21,6.7V3.3C21,3.1,20.9,3,20.7,3h-3.4C17.1,3,17,3.1,17,3.3v3.4
	C17,6.9,17.1,7,17.3,7z"/>
<path style="fill:#333333;" d="M16.9,8c1.3,1.3,2.1,3,2.1,5c0,3.9-3.1,7-7,7s-7-3.1-7-7c0-2,0.8-3.7,2.1-5H1v15h22V8H16.9z"/>
<g>
	<path style="fill:#333333;" d="M12,8c2.8,0,5,2.2,5,5s-2.2,5-5,5s-5-2.2-5-5S9.2,8,12,8 M12,6c-3.9,0-7,3.1-7,7s3.1,7,7,7
		s7-3.1,7-7S15.9,6,12,6L12,6z"/>
</g>
<path style="fill:#333333;" d="M12,10c-0.3,0-0.6,0.1-0.9,0.1c0.5,0.2,0.9,0.8,0.9,1.4c0,0.8-0.7,1.5-1.5,1.5
	c-0.6,0-1.1-0.4-1.4-0.9C9.1,12.4,9,12.7,9,13c0,1.7,1.3,3,3,3s3-1.3,3-3S13.7,10,12,10z"/>
</svg>
