<?xml version="1.0" encoding="utf-8"?>
<!-- Generator: Adobe Illustrator 17.1.0, SVG Export Plug-In . SVG Version: 6.00 Build 0)  -->
<!DOCTYPE svg PUBLIC "-//W3C//DTD SVG 1.0//EN" "http://www.w3.org/TR/2001/REC-SVG-20010904/DTD/svg10.dtd">
<svg version="1.0" id="Layer_1" xmlns="http://www.w3.org/2000/svg" xmlns:xlink="http://www.w3.org/1999/xlink" x="0px" y="0px"
	 width="24px" height="24px" viewBox="0 0 24 24" style="enable-background:new 0 0 24 24;" xml:space="preserve">
<circle style="fill:#333333;" cx="18.5" cy="3.5" r="3.5"/>
<circle style="fill:#333333;" cx="10.5" cy="3.5" r="2.5"/>
<circle style="fill:#333333;" cx="4" cy="4" r="2"/>
<path style="fill:#333333;" d="M22.9,13.7C22.6,11.1,20.3,9,17.5,9c-1.5,0-2.8,0.6-3.8,1.5C13.1,9,11.7,8,10,8
	C8.8,8,7.7,8.6,6.9,9.4C6.7,8.1,5.5,7,4,7c-1.7,0-3,1.3-3,3v7h5v3h6v4c0,0,7.3,0,11,0c0,0,0-8.8,0-9.2S22.9,13.7,22.9,13.7z"/>
</svg>
